<mxfile host="65bd71144e">
    <diagram id="tBFiH671If8sxwnHub_W" name="Page-1">
        <mxGraphModel dx="2081" dy="1890" grid="1" gridSize="10" guides="1" tooltips="1" connect="1" arrows="1" fold="1" page="1" pageScale="1" pageWidth="850" pageHeight="1100" math="0" shadow="0">
            <root>
                <mxCell id="0"/>
                <mxCell id="1" parent="0"/>
                <mxCell id="QNAiTk-AWDqAd8Ro9L4--46" style="edgeStyle=orthogonalEdgeStyle;rounded=0;orthogonalLoop=1;jettySize=auto;html=1;entryX=1;entryY=0.5;entryDx=0;entryDy=0;" parent="1" source="QNAiTk-AWDqAd8Ro9L4--4" target="QNAiTk-AWDqAd8Ro9L4--45" edge="1">
                    <mxGeometry relative="1" as="geometry"/>
                </mxCell>
                <mxCell id="12" style="edgeStyle=none;html=1;entryX=0.6;entryY=0;entryDx=0;entryDy=0;entryPerimeter=0;startArrow=classic;startFill=1;endArrow=none;endFill=0;exitX=0.636;exitY=1.033;exitDx=0;exitDy=0;exitPerimeter=0;" edge="1" parent="1" source="QNAiTk-AWDqAd8Ro9L4--7" target="QNAiTk-AWDqAd8Ro9L4--24">
                    <mxGeometry relative="1" as="geometry">
                        <mxPoint x="160" y="320" as="sourcePoint"/>
                        <Array as="points">
                            <mxPoint x="160" y="340"/>
                            <mxPoint x="314" y="340"/>
                        </Array>
                    </mxGeometry>
                </mxCell>
                <mxCell id="QNAiTk-AWDqAd8Ro9L4--4" value="User    " style="swimlane;fontStyle=0;childLayout=stackLayout;horizontal=1;startSize=26;fillColor=none;horizontalStack=0;resizeParent=1;resizeParentMax=0;resizeLast=0;collapsible=1;marginBottom=0;" parent="1" vertex="1">
                    <mxGeometry x="70" y="160" width="140" height="150" as="geometry"/>
                </mxCell>
                <mxCell id="QNAiTk-AWDqAd8Ro9L4--6" value="ID:int&#10;Username: string&#10;" style="text;strokeColor=none;fillColor=none;align=left;verticalAlign=top;spacingLeft=4;spacingRight=4;overflow=hidden;rotatable=0;points=[[0,0.5],[1,0.5]];portConstraint=eastwest;" parent="QNAiTk-AWDqAd8Ro9L4--4" vertex="1">
                    <mxGeometry y="26" width="140" height="34" as="geometry"/>
                </mxCell>
                <mxCell id="QNAiTk-AWDqAd8Ro9L4--7" value="Email:string&#10;Password:string&#10;Nome:string&#10;Phone: string" style="text;strokeColor=none;fillColor=none;align=left;verticalAlign=top;spacingLeft=4;spacingRight=4;overflow=hidden;rotatable=0;points=[[0,0.5],[1,0.5]];portConstraint=eastwest;" parent="QNAiTk-AWDqAd8Ro9L4--4" vertex="1">
                    <mxGeometry y="60" width="140" height="90" as="geometry"/>
                </mxCell>
                <mxCell id="QNAiTk-AWDqAd8Ro9L4--35" style="edgeStyle=orthogonalEdgeStyle;rounded=0;orthogonalLoop=1;jettySize=auto;html=1;entryX=1.021;entryY=0.029;entryDx=0;entryDy=0;entryPerimeter=0;" parent="1" source="QNAiTk-AWDqAd8Ro9L4--8" target="QNAiTk-AWDqAd8Ro9L4--7" edge="1">
                    <mxGeometry relative="1" as="geometry"/>
                </mxCell>
                <mxCell id="7" style="edgeStyle=none;html=1;startArrow=classic;startFill=1;endArrow=none;endFill=0;entryX=0.1;entryY=-0.057;entryDx=0;entryDy=0;entryPerimeter=0;exitX=0.579;exitY=-0.038;exitDx=0;exitDy=0;exitPerimeter=0;" edge="1" parent="1" source="QNAiTk-AWDqAd8Ro9L4--8" target="QNAiTk-AWDqAd8Ro9L4--20">
                    <mxGeometry relative="1" as="geometry">
                        <Array as="points">
                            <mxPoint x="390" y="80"/>
                            <mxPoint x="560" y="80"/>
                        </Array>
                    </mxGeometry>
                </mxCell>
                <mxCell id="QNAiTk-AWDqAd8Ro9L4--8" value="Post" style="swimlane;fontStyle=0;childLayout=stackLayout;horizontal=1;startSize=26;fillColor=none;horizontalStack=0;resizeParent=1;resizeParentMax=0;resizeLast=0;collapsible=1;marginBottom=0;" parent="1" vertex="1">
                    <mxGeometry x="310" y="160" width="140" height="130" as="geometry"/>
                </mxCell>
                <mxCell id="QNAiTk-AWDqAd8Ro9L4--9" value="ID: int&#10;Data: string&#10;Description: string&#10;DatePost: DateTime" style="text;strokeColor=none;fillColor=none;align=left;verticalAlign=top;spacingLeft=4;spacingRight=4;overflow=hidden;rotatable=0;points=[[0,0.5],[1,0.5]];portConstraint=eastwest;" parent="QNAiTk-AWDqAd8Ro9L4--8" vertex="1">
                    <mxGeometry y="26" width="140" height="104" as="geometry"/>
                </mxCell>
                <mxCell id="QNAiTk-AWDqAd8Ro9L4--16" value="Classname" style="swimlane;fontStyle=0;childLayout=stackLayout;horizontal=1;startSize=26;fillColor=none;horizontalStack=0;resizeParent=1;resizeParentMax=0;resizeLast=0;collapsible=1;marginBottom=0;" parent="1" vertex="1">
                    <mxGeometry x="670" y="108" width="140" height="52" as="geometry"/>
                </mxCell>
                <mxCell id="QNAiTk-AWDqAd8Ro9L4--17" value="+ field: type" style="text;strokeColor=none;fillColor=none;align=left;verticalAlign=top;spacingLeft=4;spacingRight=4;overflow=hidden;rotatable=0;points=[[0,0.5],[1,0.5]];portConstraint=eastwest;" parent="QNAiTk-AWDqAd8Ro9L4--16" vertex="1">
                    <mxGeometry y="26" width="140" height="26" as="geometry"/>
                </mxCell>
                <mxCell id="QNAiTk-AWDqAd8Ro9L4--42" style="edgeStyle=orthogonalEdgeStyle;rounded=0;orthogonalLoop=1;jettySize=auto;html=1;endArrow=none;endFill=0;startArrow=classic;startFill=1;" parent="1" source="QNAiTk-AWDqAd8Ro9L4--20" target="QNAiTk-AWDqAd8Ro9L4--9" edge="1">
                    <mxGeometry relative="1" as="geometry"/>
                </mxCell>
                <mxCell id="3" style="edgeStyle=none;html=1;" edge="1" parent="1" source="QNAiTk-AWDqAd8Ro9L4--20">
                    <mxGeometry relative="1" as="geometry">
                        <mxPoint x="200" y="160" as="targetPoint"/>
                        <Array as="points">
                            <mxPoint x="620" y="40"/>
                            <mxPoint x="200" y="40"/>
                        </Array>
                    </mxGeometry>
                </mxCell>
                <mxCell id="QNAiTk-AWDqAd8Ro9L4--20" value="Like" style="swimlane;fontStyle=0;childLayout=stackLayout;horizontal=1;startSize=26;fillColor=none;horizontalStack=0;resizeParent=1;resizeParentMax=0;resizeLast=0;collapsible=1;marginBottom=0;" parent="1" vertex="1">
                    <mxGeometry x="550" y="198" width="140" height="80" as="geometry"/>
                </mxCell>
                <mxCell id="QNAiTk-AWDqAd8Ro9L4--21" value="ID: int&#10;Date: timeStamp" style="text;strokeColor=none;fillColor=none;align=left;verticalAlign=top;spacingLeft=4;spacingRight=4;overflow=hidden;rotatable=0;points=[[0,0.5],[1,0.5]];portConstraint=eastwest;" parent="QNAiTk-AWDqAd8Ro9L4--20" vertex="1">
                    <mxGeometry y="26" width="140" height="54" as="geometry"/>
                </mxCell>
                <mxCell id="QNAiTk-AWDqAd8Ro9L4--39" style="edgeStyle=orthogonalEdgeStyle;rounded=0;orthogonalLoop=1;jettySize=auto;html=1;entryX=0.436;entryY=1.019;entryDx=0;entryDy=0;entryPerimeter=0;" parent="1" source="QNAiTk-AWDqAd8Ro9L4--24" target="QNAiTk-AWDqAd8Ro9L4--9" edge="1">
                    <mxGeometry relative="1" as="geometry">
                        <Array as="points">
                            <mxPoint x="240" y="380"/>
                            <mxPoint x="370" y="380"/>
                        </Array>
                    </mxGeometry>
                </mxCell>
                <mxCell id="13" style="edgeStyle=none;html=1;startArrow=classic;startFill=1;endArrow=none;endFill=0;" edge="1" parent="1" source="QNAiTk-AWDqAd8Ro9L4--24" target="QNAiTk-AWDqAd8Ro9L4--21">
                    <mxGeometry relative="1" as="geometry">
                        <Array as="points">
                            <mxPoint x="620" y="580"/>
                        </Array>
                    </mxGeometry>
                </mxCell>
                <mxCell id="QNAiTk-AWDqAd8Ro9L4--24" value="Comments" style="swimlane;fontStyle=0;childLayout=stackLayout;horizontal=1;startSize=26;fillColor=none;horizontalStack=0;resizeParent=1;resizeParentMax=0;resizeLast=0;collapsible=1;marginBottom=0;" parent="1" vertex="1">
                    <mxGeometry x="230" y="550" width="140" height="60" as="geometry"/>
                </mxCell>
                <mxCell id="QNAiTk-AWDqAd8Ro9L4--25" value="ID:int&#10;Text:String&#10;" style="text;strokeColor=none;fillColor=none;align=left;verticalAlign=top;spacingLeft=4;spacingRight=4;overflow=hidden;rotatable=0;points=[[0,0.5],[1,0.5]];portConstraint=eastwest;" parent="QNAiTk-AWDqAd8Ro9L4--24" vertex="1">
                    <mxGeometry y="26" width="140" height="34" as="geometry"/>
                </mxCell>
                <mxCell id="QNAiTk-AWDqAd8Ro9L4--44" value="Address" style="swimlane;fontStyle=0;childLayout=stackLayout;horizontal=1;startSize=26;fillColor=none;horizontalStack=0;resizeParent=1;resizeParentMax=0;resizeLast=0;collapsible=1;marginBottom=0;" parent="1" vertex="1">
                    <mxGeometry x="-160" y="150" width="140" height="130" as="geometry"/>
                </mxCell>
                <mxCell id="QNAiTk-AWDqAd8Ro9L4--45" value="ID:  Int&#10;Street: string&#10;City: string&#10;State: String,&#10;Country: string&#10;Zip: string" style="text;strokeColor=none;fillColor=none;align=left;verticalAlign=top;spacingLeft=4;spacingRight=4;overflow=hidden;rotatable=0;points=[[0,0.5],[1,0.5]];portConstraint=eastwest;" parent="QNAiTk-AWDqAd8Ro9L4--44" vertex="1">
                    <mxGeometry y="26" width="140" height="104" as="geometry"/>
                </mxCell>
                <mxCell id="QNAiTk-AWDqAd8Ro9L4--49" style="edgeStyle=orthogonalEdgeStyle;rounded=0;orthogonalLoop=1;jettySize=auto;html=1;" parent="1" source="QNAiTk-AWDqAd8Ro9L4--47" edge="1">
                    <mxGeometry relative="1" as="geometry">
                        <mxPoint x="120" y="290" as="targetPoint"/>
                        <Array as="points">
                            <mxPoint x="-20" y="375"/>
                            <mxPoint x="120" y="375"/>
                            <mxPoint x="120" y="290"/>
                        </Array>
                    </mxGeometry>
                </mxCell>
                <mxCell id="QNAiTk-AWDqAd8Ro9L4--51" style="edgeStyle=orthogonalEdgeStyle;rounded=0;orthogonalLoop=1;jettySize=auto;html=1;" parent="1" source="QNAiTk-AWDqAd8Ro9L4--47" target="QNAiTk-AWDqAd8Ro9L4--24" edge="1">
                    <mxGeometry relative="1" as="geometry">
                        <Array as="points">
                            <mxPoint x="300" y="470"/>
                        </Array>
                    </mxGeometry>
                </mxCell>
                <mxCell id="QNAiTk-AWDqAd8Ro9L4--47" value="ResponseComments" style="swimlane;fontStyle=0;childLayout=stackLayout;horizontal=1;startSize=26;fillColor=none;horizontalStack=0;resizeParent=1;resizeParentMax=0;resizeLast=0;collapsible=1;marginBottom=0;" parent="1" vertex="1">
                    <mxGeometry x="-90" y="460" width="140" height="60" as="geometry"/>
                </mxCell>
                <mxCell id="QNAiTk-AWDqAd8Ro9L4--48" value="ID:Int&#10;Text: string" style="text;strokeColor=none;fillColor=none;align=left;verticalAlign=top;spacingLeft=4;spacingRight=4;overflow=hidden;rotatable=0;points=[[0,0.5],[1,0.5]];portConstraint=eastwest;" parent="QNAiTk-AWDqAd8Ro9L4--47" vertex="1">
                    <mxGeometry y="26" width="140" height="34" as="geometry"/>
                </mxCell>
                <mxCell id="QNAiTk-AWDqAd8Ro9L4--55" style="edgeStyle=orthogonalEdgeStyle;rounded=0;orthogonalLoop=1;jettySize=auto;html=1;" parent="1" source="QNAiTk-AWDqAd8Ro9L4--52" target="QNAiTk-AWDqAd8Ro9L4--4" edge="1">
                    <mxGeometry relative="1" as="geometry"/>
                </mxCell>
                <mxCell id="QNAiTk-AWDqAd8Ro9L4--56" style="edgeStyle=orthogonalEdgeStyle;rounded=0;orthogonalLoop=1;jettySize=auto;html=1;entryX=0.25;entryY=0;entryDx=0;entryDy=0;" parent="1" source="QNAiTk-AWDqAd8Ro9L4--52" target="QNAiTk-AWDqAd8Ro9L4--4" edge="1">
                    <mxGeometry relative="1" as="geometry"/>
                </mxCell>
                <mxCell id="QNAiTk-AWDqAd8Ro9L4--52" value="Follow" style="swimlane;fontStyle=0;childLayout=stackLayout;horizontal=1;startSize=26;fillColor=none;horizontalStack=0;resizeParent=1;resizeParentMax=0;resizeLast=0;collapsible=1;marginBottom=0;" parent="1" vertex="1">
                    <mxGeometry x="70" y="-30" width="140" height="52" as="geometry"/>
                </mxCell>
                <mxCell id="QNAiTk-AWDqAd8Ro9L4--53" value="ID:int" style="text;strokeColor=none;fillColor=none;align=left;verticalAlign=top;spacingLeft=4;spacingRight=4;overflow=hidden;rotatable=0;points=[[0,0.5],[1,0.5]];portConstraint=eastwest;" parent="QNAiTk-AWDqAd8Ro9L4--52" vertex="1">
                    <mxGeometry y="26" width="140" height="26" as="geometry"/>
                </mxCell>
                <mxCell id="14" style="edgeStyle=none;html=1;startArrow=classic;startFill=1;endArrow=none;endFill=0;" edge="1" parent="1" source="QNAiTk-AWDqAd8Ro9L4--48" target="QNAiTk-AWDqAd8Ro9L4--21">
                    <mxGeometry relative="1" as="geometry">
                        <Array as="points">
                            <mxPoint x="620" y="500"/>
                        </Array>
                    </mxGeometry>
                </mxCell>
            </root>
        </mxGraphModel>
    </diagram>
</mxfile>